<svg xmlns="http://www.w3.org/2000/svg" viewBox="0 0 64 64" fill="none">
  <defs>
    <linearGradient id="brandGradient" x1="0%" y1="0%" x2="100%" y2="100%">
      <stop offset="0%" style="stop-color:#FF6B35"/>
      <stop offset="100%" style="stop-color:#FF1493"/>
    </linearGradient>
  </defs>

  <!-- Bottle shape -->
  <path d="M28 6 L36 6 L36 14 L44 22 L44 52 C44 58 36 62 32 62 C28 62 20 58 20 52 L20 22 L28 14 L28 6 Z"
        fill="url(#brandGradient)"/>

  <!-- Leaf/energy accent -->
  <path d="M48 24 C56 20 64 28 58 38 C54 44 46 40 46 40 C46 40 52 34 48 30 C44 26 44 26 48 24"
        fill="#00D9A5"/>

  <!-- Bubbles -->
  <circle cx="30" cy="45" r="3" fill="rgba(255,255,255,0.5)"/>
  <circle cx="36" cy="38" r="2.5" fill="rgba(255,255,255,0.4)"/>
  <circle cx="27" cy="36" r="2" fill="rgba(255,255,255,0.3)"/>
</svg>
